<?xml version="1.0" encoding="utf-8"?>
<!-- Generator: Adobe Illustrator 23.1.0, SVG Export Plug-In . SVG Version: 6.00 Build 0)  -->
<svg version="1.1" xmlns="http://www.w3.org/2000/svg" xmlns:xlink="http://www.w3.org/1999/xlink" x="0px" y="0px"
	 viewBox="0 0 1000 400" style="enable-background:new 0 0 1000 400;" xml:space="preserve">
<style type="text/css">
	.st0{fill:#262628;}
	.st1{filter:url(#Adobe_OpacityMaskFilter);}
	.st2{fill-rule:evenodd;clip-rule:evenodd;fill:#FFFFFF;}
	.st3{mask:url(#mask-2_6_);fill-rule:evenodd;clip-rule:evenodd;fill:#262628;}
	.st4{filter:url(#Adobe_OpacityMaskFilter_1_);}
	.st5{mask:url(#mask-2_5_);fill-rule:evenodd;clip-rule:evenodd;fill:#262628;}
	.st6{filter:url(#Adobe_OpacityMaskFilter_2_);}
	.st7{mask:url(#mask-2_1_);fill-rule:evenodd;clip-rule:evenodd;fill:#262628;}
	.st8{filter:url(#Adobe_OpacityMaskFilter_3_);}
	.st9{mask:url(#mask-2_9_);fill:#262628;}
	.st10{filter:url(#Adobe_OpacityMaskFilter_4_);}
	.st11{mask:url(#mask-2_8_);fill-rule:evenodd;clip-rule:evenodd;fill:#262628;}
	.st12{filter:url(#Adobe_OpacityMaskFilter_5_);}
	.st13{mask:url(#mask-2_7_);fill-rule:evenodd;clip-rule:evenodd;fill:#262628;}
	.st14{fill:none;stroke:#262628;stroke-miterlimit:10;}
	.st15{fill:#15003E;}
	.st16{fill-rule:evenodd;clip-rule:evenodd;fill:#15003E;}
	.st17{filter:url(#Adobe_OpacityMaskFilter_6_);}
	.st18{mask:url(#mask-2_18_);fill-rule:evenodd;clip-rule:evenodd;fill:#15003E;}
	.st19{filter:url(#Adobe_OpacityMaskFilter_7_);}
	.st20{mask:url(#mask-2_17_);fill-rule:evenodd;clip-rule:evenodd;fill:#15003E;}
	.st21{filter:url(#Adobe_OpacityMaskFilter_8_);}
	.st22{mask:url(#mask-2_16_);fill-rule:evenodd;clip-rule:evenodd;fill:#0FCE7C;}
	.st23{filter:url(#Adobe_OpacityMaskFilter_9_);}
	.st24{mask:url(#mask-2_15_);fill:none;}
	.st25{filter:url(#Adobe_OpacityMaskFilter_10_);}
	.st26{mask:url(#mask-2_14_);fill-rule:evenodd;clip-rule:evenodd;fill:#15003E;}
	.st27{filter:url(#Adobe_OpacityMaskFilter_11_);}
	.st28{mask:url(#mask-2_10_);fill-rule:evenodd;clip-rule:evenodd;fill:#15003E;}
	.st29{fill:#0FCE7C;}
	.st30{filter:url(#Adobe_OpacityMaskFilter_12_);}
	.st31{mask:url(#mask-2_21_);fill-rule:evenodd;clip-rule:evenodd;fill:#15003E;}
	.st32{filter:url(#Adobe_OpacityMaskFilter_13_);}
	.st33{mask:url(#mask-2_20_);fill-rule:evenodd;clip-rule:evenodd;fill:#0FCE7C;}
	.st34{filter:url(#Adobe_OpacityMaskFilter_14_);}
	.st35{mask:url(#mask-2_19_);fill-rule:evenodd;clip-rule:evenodd;fill:#0FCE7C;}
	.st36{filter:url(#Adobe_OpacityMaskFilter_15_);}
	.st37{mask:url(#mask-2_13_);fill:none;}
	.st38{filter:url(#Adobe_OpacityMaskFilter_16_);}
	.st39{mask:url(#mask-2_12_);fill-rule:evenodd;clip-rule:evenodd;fill:#15003E;}
	.st40{filter:url(#Adobe_OpacityMaskFilter_17_);}
	.st41{mask:url(#mask-2_11_);fill-rule:evenodd;clip-rule:evenodd;fill:#15003E;}
	.st42{filter:url(#Adobe_OpacityMaskFilter_18_);}
	.st43{mask:url(#mask-2_4_);fill:none;}
	.st44{filter:url(#Adobe_OpacityMaskFilter_19_);}
	.st45{mask:url(#mask-2_24_);fill-rule:evenodd;clip-rule:evenodd;fill:#FFFFFF;}
	.st46{filter:url(#Adobe_OpacityMaskFilter_20_);}
	.st47{mask:url(#mask-2_23_);fill-rule:evenodd;clip-rule:evenodd;fill:#0FCE7C;}
	.st48{filter:url(#Adobe_OpacityMaskFilter_21_);}
	.st49{mask:url(#mask-2_3_);fill-rule:evenodd;clip-rule:evenodd;fill:#FFFFFF;}
	.st50{filter:url(#Adobe_OpacityMaskFilter_22_);}
	.st51{mask:url(#mask-2_2_);fill-rule:evenodd;clip-rule:evenodd;fill:#FFFFFF;}
	.st52{fill:#FFFFFF;}
	.st53{filter:url(#Adobe_OpacityMaskFilter_23_);}
	.st54{mask:url(#mask-2_28_);fill:none;}
	.st55{filter:url(#Adobe_OpacityMaskFilter_24_);}
	.st56{mask:url(#mask-2_27_);fill-rule:evenodd;clip-rule:evenodd;fill:#15003E;}
	.st57{filter:url(#Adobe_OpacityMaskFilter_25_);}
	.st58{mask:url(#mask-2_26_);fill-rule:evenodd;clip-rule:evenodd;fill:#15003E;}
	.st59{filter:url(#Adobe_OpacityMaskFilter_26_);}
	.st60{mask:url(#mask-2_25_);fill-rule:evenodd;clip-rule:evenodd;fill:#15003E;}
	.st61{filter:url(#Adobe_OpacityMaskFilter_27_);}
	.st62{mask:url(#mask-2_22_);fill-rule:evenodd;clip-rule:evenodd;fill:#15003E;}
</style>
<g id="x">
	<rect x="986.7" y="412.8" class="st0" width="1.9" height="0.5"/>
	<path class="st0" d="M985.1,409.9H984v2.9h1.1c0.8,0,1.5-0.6,1.5-1.4C986.6,410.5,985.9,409.9,985.1,409.9z M985.1,412.2h-0.4v-1.7
		h0.4c0.5,0,0.9,0.4,0.9,0.8C986,411.8,985.6,412.2,985.1,412.2z"/>
	<path class="st0" d="M989,409.9v2.9h1.1c0.8,0,1.5-0.6,1.5-1.4c0-0.8-0.7-1.4-1.5-1.4H989z M991,411.3c0,0.5-0.4,0.8-0.9,0.8h-0.4
		v-1.7h0.4C990.6,410.5,991,410.9,991,411.3z"/>
	<defs>
		<filter id="Adobe_OpacityMaskFilter" filterUnits="userSpaceOnUse" x="970.9" y="405.6" width="0.7" height="1.5">
			<feColorMatrix  type="matrix" values="1 0 0 0 0  0 1 0 0 0  0 0 1 0 0  0 0 0 1 0"/>
		</filter>
	</defs>
	<mask maskUnits="userSpaceOnUse" x="970.9" y="405.6" width="0.7" height="1.5" id="mask-2_6_">
		<g class="st1">
			<polygon id="path-1_6_" class="st2" points="966.4,416.9 1020.3,416.9 1020.3,404.5 966.4,404.5 			"/>
		</g>
	</mask>
	<path id="Fill-384_1_" class="st3" d="M971.6,407.1V406c0-0.2-0.1-0.3-0.3-0.3c-0.2,0-0.3,0.1-0.3,0.3v1.2c0.2,0,0.3,0,0.5,0
		C971.5,407.1,971.6,407.1,971.6,407.1"/>
	<defs>
		<filter id="Adobe_OpacityMaskFilter_1_" filterUnits="userSpaceOnUse" x="973.2" y="409.2" width="1.8" height="5.1">
			<feColorMatrix  type="matrix" values="1 0 0 0 0  0 1 0 0 0  0 0 1 0 0  0 0 0 1 0"/>
		</filter>
	</defs>
	<mask maskUnits="userSpaceOnUse" x="973.2" y="409.2" width="1.8" height="5.1" id="mask-2_5_">
		<g class="st4">
			<polygon id="path-1_5_" class="st2" points="966.4,416.9 1020.3,416.9 1020.3,404.5 966.4,404.5 			"/>
		</g>
	</mask>
	<path id="Fill-385_1_" class="st5" d="M973.2,409.8L973.2,409.8c0.6,0.5,0.8,1.2,0.8,1.9c0,0.7-0.3,1.3-0.7,1.8l0,0l0.2,0.2
		l0.5,0.4c0.6-0.7,1-1.6,1-2.5c0-1-0.4-1.9-1.1-2.6l-0.3,0.3L973.2,409.8z"/>
	<defs>
		<filter id="Adobe_OpacityMaskFilter_2_" filterUnits="userSpaceOnUse" x="973.5" y="413.8" width="0.5" height="0.5">
			<feColorMatrix  type="matrix" values="1 0 0 0 0  0 1 0 0 0  0 0 1 0 0  0 0 0 1 0"/>
		</filter>
	</defs>
	<mask maskUnits="userSpaceOnUse" x="973.5" y="413.8" width="0.5" height="0.5" id="mask-2_1_">
		<g class="st6">
			<polygon id="path-1_1_" class="st2" points="966.4,416.9 1020.3,416.9 1020.3,404.5 966.4,404.5 			"/>
		</g>
	</mask>
	<path id="Fill-386_1_" class="st7" d="M974,414.3L974,414.3C974,414.3,974.1,414.2,974,414.3l-0.5-0.5L974,414.3z"/>
	<defs>
		<filter id="Adobe_OpacityMaskFilter_3_" filterUnits="userSpaceOnUse" x="972.1" y="408.5" width="2.6" height="2.4">
			<feColorMatrix  type="matrix" values="1 0 0 0 0  0 1 0 0 0  0 0 1 0 0  0 0 0 1 0"/>
		</filter>
	</defs>
	<mask maskUnits="userSpaceOnUse" x="972.1" y="408.5" width="2.6" height="2.4" id="mask-2_9_">
		<g class="st8">
			<polygon id="path-1_9_" class="st2" points="966.4,416.9 1020.3,416.9 1020.3,404.5 966.4,404.5 			"/>
		</g>
	</mask>
	<line id="Fill-387_1_" class="st9" x1="974.7" y1="408.5" x2="972.1" y2="410.9"/>
	<defs>
		<filter id="Adobe_OpacityMaskFilter_4_" filterUnits="userSpaceOnUse" x="966.4" y="406.7" width="9" height="10.2">
			<feColorMatrix  type="matrix" values="1 0 0 0 0  0 1 0 0 0  0 0 1 0 0  0 0 0 1 0"/>
		</filter>
	</defs>
	<mask maskUnits="userSpaceOnUse" x="966.4" y="406.7" width="9" height="10.2" id="mask-2_8_">
		<g class="st10">
			<polygon id="path-1_8_" class="st2" points="966.4,416.9 1020.3,416.9 1020.3,404.5 966.4,404.5 			"/>
		</g>
	</mask>
	<path id="Fill-388_1_" class="st11" d="M974.4,415.9h-3c-2.3,0-4.2-1.9-4.2-4.2c0-2.3,1.9-4.2,4.2-4.2c1,0,1.9,0.3,2.6,0.9l-2,1.9
		c-0.2-0.1-0.4-0.1-0.6-0.1c-0.8,0-1.5,0.7-1.5,1.5c0,0.8,0.7,1.5,1.5,1.5c0.1,0,0.3,0,0.4-0.1l2.5,1.9V415.9z M971.5,412.3
		c-0.3,0-0.6-0.3-0.6-0.6s0.3-0.6,0.6-0.6c0.3,0,0.6,0.3,0.6,0.6S971.8,412.3,971.5,412.3L971.5,412.3z M973,411.8
		c0-0.3-0.1-0.6-0.2-0.8l1.2-1.1l0,0l1.4-1.4l-0.3-0.3c-1-1-2.2-1.5-3.6-1.5c-2.8,0-5.1,2.3-5.1,5.1c0,2.8,2.2,5.1,5,5.1v0h4v-2.2
		l-2.7-2C972.8,412.4,973,412.1,973,411.8L973,411.8z"/>
	<defs>
		<filter id="Adobe_OpacityMaskFilter_5_" filterUnits="userSpaceOnUse" x="969.4" y="405.6" width="0.7" height="4.2">
			<feColorMatrix  type="matrix" values="1 0 0 0 0  0 1 0 0 0  0 0 1 0 0  0 0 0 1 0"/>
		</filter>
	</defs>
	<mask maskUnits="userSpaceOnUse" x="969.4" y="405.6" width="0.7" height="4.2" id="mask-2_7_">
		<g class="st12">
			<polygon id="path-1_7_" class="st2" points="966.4,416.9 1020.3,416.9 1020.3,404.5 966.4,404.5 			"/>
		</g>
	</mask>
	<path id="Fill-392_1_" class="st13" d="M969.7,409.8c-0.2,0-0.3-0.1-0.3-0.3V406c0-0.2,0.1-0.3,0.3-0.3c0.2,0,0.3,0.1,0.3,0.3v3.6
		C970,409.7,969.9,409.8,969.7,409.8"/>
	<text transform="matrix(1 0 0 1 978.391 412.5469)" class="st0" style="font-family:'PixelTandysoft'; font-size:2.453px;">x</text>
	<g>
		<path class="st14" d="M987.6,406.4c-2.8,0-5.1,2.2-5.1,4.9c0,2.7,2.3,4.9,5.1,4.9s5.1-2.2,5.1-4.9
			C992.8,408.6,990.5,406.4,987.6,406.4z"/>
	</g>
</g>
<g id="n1_1_">
	<g>
		<rect x="85.5" y="126.6" class="st15" width="25.3" height="6.5"/>
		<path class="st16" d="M49,85.5v41.2h14.4c11.4,0,20.6-9.2,20.6-20.6s-9.2-20.6-20.6-20.6H49z M57.8,94.3v23.5h5.6
			c6.5,0,11.8-5.3,11.8-11.8s-5.3-11.8-11.8-11.8H57.8z"/>
		<path class="st16" d="M117.2,85.5v41.2h14.4c11.4,0,20.6-9.2,20.6-20.6s-9.2-20.6-20.6-20.6H117.2z M126.1,94.3v23.5h5.6
			c6.5,0,11.8-5.3,11.8-11.8s-5.3-11.8-11.8-11.8H126.1z"/>
		<path class="st15" d="M172.7,74.6c-3.4,0-5.5-0.9-7.1-4c-3.9-7.2-9.2-13.4-15.4-18.8C135,38.5,117.2,31.9,93.1,31.9
			c-7.4-0.2-17.9,2.4-28,6.8c-12.7,5.7-23.1,14.1-31.3,25.1c-9.1,12.2-13.8,26-14.7,40.9c-0.5,8.6,0.7,17.2,3.3,25.6
			c4.6,15.5,13.6,28.2,26.4,38.3c11.6,9.2,24.9,14.4,39.6,16.2c14.9,1.8,29.3-0.6,42.8-6.9c14.3-6.6,23.4-13.7,31.6-26.9
			c1.6-2.6,4.3-5.2,7.3-5.2c6.1,0,12.1,0,18.2,0c0.3-1.4,1.9-4.2,2.2-5.6c0-21.7,0-43.9,0-65.8C184.6,74.5,178.7,74.5,172.7,74.6z
			 M97.7,167.5C65,168,38.5,142,37.3,110.8C36,76.9,64.5,49.9,97.1,49.7c32.3-0.2,60.5,24.9,60.8,58.7
			C158.2,140.6,131.1,167.9,97.7,167.5z"/>
		<path class="st15" d="M569.2,84.8c-1.7-6.3-3.9-12.2-6.8-17.9c-3.6-7.3-8.8-13.4-14.5-19.2c-4.8-4.8-10.3-8.5-16.1-12
			c-7-4.2-14.7-7-22.5-8.5c-11.8-2.2-23.6-1.9-35.4,1.2c-16.1,4.2-29.2,13-39.9,25.6c-3.1,3.6-5.4,7.8-8,11.7
			c-0.8,1.3-1.8,1.9-3.2,1.9c-2.3,0-4.7,0-7,0.1c-2.3,0.1-4.6,0.1-6.9,0.2c0,23.8,0,47.5,0,71.5c4.5,0,8.9,0,13.4,0
			c1.3,0,2.7,0,3.3,1.3c1.2,2.3,3,4.2,4.3,6.4c6.7,10.7,16.1,18.6,26.8,24.9c10.6,6.2,22.4,8.9,34.5,9.5c8.5,0.4,16.9-1,25.1-3.4
			c9.8-2.9,18.6-7.6,26.4-14.2c9-7.5,16.4-16.3,21.3-27c4.4-9.6,7.2-19.6,7.4-30.3C571.6,99.2,571.1,92,569.2,84.8z M554.2,108.7
			c-0.4,3.8-0.6,7.7-1.7,11.3c-1.7,5.9-4.2,11.7-7.7,16.9c-3.3,4.9-7,9.4-11.4,13.2c-5.2,4.4-11.1,7.9-17.5,10.3
			c-7.1,2.7-14.4,4.6-21,4.2c-15.3,0.2-28-4.4-39-13.2c-8.5-6.8-14.8-15.4-18.9-25.9c-4.1-10.5-4.9-21.1-3.4-31.9
			c0.9-7,3.5-13.6,7-19.8c4.4-7.8,10.3-14.1,17.3-19.4c4.6-3.5,9.8-6.2,15.4-8.1c6.1-2.1,12.4-3,18.8-3.9c4.9-0.7,9.4,0.8,14.1,1.7
			c10.7,2,20.3,6.7,28.4,14.2c5.4,5,10.1,10.5,13.4,16.9C553.2,85.6,555.4,96.8,554.2,108.7z"/>
		<path class="st15" d="M246.3,134.5c-0.2-2.8-2.8-5.7-5.8-6.6c-2.5-0.7-5.2,0.3-6.9,2.9c-2.1,2.9-4.1,5.9-6.1,8.9
			c-0.7,1.1-1.3,2.3-1.2,3.7c-0.2,1.8,0.6,3.3,1.8,4.5c2.4,2.7,7.8,4,10.5-0.1c2.2-3.3,4.5-6.6,6.8-9.9
			C246,136.9,246.4,135.8,246.3,134.5z"/>
		<path class="st15" d="M371.4,95.1c0-7-0.7-14-0.6-21c0-1.3-0.3-2.5-1.7-2.9c-1.6-0.3-3.1-1-4.6-1.7c-11.3-4.6-22.5-9.1-33.8-13.6
			c-3.1-1.2-6.1-2.9-9.7-2.9c-14.8,0.1-29.5,0.1-44.3,0c-1.7,0-3.2,0.5-4.4,1.6c-2.8,2.5-5.6,5-8.4,7.5c-4.1,3.7-8.2,7.5-12.4,11.2
			c-4.2,3.7-8.4,7.3-12.5,11c-2,1.7-1.9,3.1,0.1,4.8c4.8,4,10.1,4.7,15.6,2c8.6-4.2,17.1-8.7,25.6-13.1c1.8-0.9,3.5-1.1,5.4-0.8
			c7.3,1.5,14.5,3.2,21.7,4.8c4,0.9,7.9,1.9,11.9,2.7c3.2,0.6,5.2,2.6,7.3,4.8c3.7,4,7.4,8,11.3,11.7c5,4.7,9.8,9.6,14.5,14.5
			c2.9,3,5.7,6.2,8.7,9.1c1.2,1.2,2.2,2.5,2.7,4.1c0.7,2.2,2.2,2.8,5.1,2.4c1.7-0.2,2.4-1.1,2.5-3.4c0.1-2.1,0.1-4.2,0.1-6.4
			C371.4,112.9,371.4,104,371.4,95.1z"/>
		<path class="st15" d="M303.1,148.9c-0.3-3.1-2.6-5.6-6.1-6.6c-2.3-0.7-4.9,0.3-6.7,2.8c-2.1,3-4,6.2-6.1,9.2
			c-3.4,4.9,1.5,10.8,6.1,10.4c2.4,0,3.5-0.6,5.1-2.5c2.4-3.1,4.5-6.4,6.6-9.6C302.8,151.5,303.3,150.3,303.1,148.9z"/>
		<path class="st15" d="M273.8,126.5c0-5-4.2-8.2-8.7-6.8c-2.2,0.7-3.6,2.4-4.7,4.3c-2,3.4-4.4,6.4-6.5,9.7
			c-2.4,3.9-5.1,7.6-7.6,11.4c-1.2,1.9-1.7,4-0.7,6.1c2.4,4.6,9,5.8,12,1.6c5.2-7.3,10.1-14.8,15.2-22.2
			C273.5,129.4,273.8,128,273.8,126.5z"/>
		<path class="st15" d="M339.4,107.7c-5.6-5.7-11.3-11.2-17-16.7c-1.2-1.2-2.5-2-4.2-2.4c-10.4-2.4-20.8-4.9-31.2-7.3
			c-1.8-0.4-3.5-0.5-5.2,0.4c-6.9,3.5-13.8,7.1-20.7,10.6c-3.6,1.9-7.2,3.7-11.4,4.1c-6.9,0.5-12.1-2.5-16.3-7.8
			c-1.7-2.2-1.6-3,0.6-4.8c1.7-1.5,3.4-3,5-4.7c0.5-0.6,1.1-1.2,0.7-2c-0.5-0.9-1.4-0.8-2.2-0.7c-2.1,0.4-4.3,0.7-6.4,1.2
			c-3.4,0.7-4,1.4-4,4.9c0,11.6-0.1,23.3-0.4,34.9c0,3.5,0,7,0,10.5c0,1.2-0.1,2.5,1.4,2.9c1.3,0.4,2-0.7,2.7-1.6
			c0.8-1.1,1.6-2.2,2.7-3.1c3.6-3.2,10.8-1.4,13.4,1.8c0.6,0.7,1.1,1.4,1.7,2.1c1.4,1.6,2.5,1.6,3.9-0.1c0.6-0.8,1.1-1.7,1.7-2.5
			c2.1-2.8,3.6-6,6-8.6c2.4-2.7,6.9-4.6,11.3-2.3c3.6,1.9,5.6,4.6,6.4,8.5c0.5,2.4,1.1,2.9,3.5,3.2c1.6,0.1,3.1,0.4,4.5,1.3
			c2.4,1.5,4.3,3.3,5.2,6.1c0.7,2.3,2.1,3.5,4.7,3.3c2.7-0.2,5.2,0.9,7.2,2.8c3.5,3.2,5.5,8.3,1.8,13c-1.1,1.4-2.1,3-3.1,4.5
			c-1.3,2-1.3,3.5,0.3,5.2c1.7,1.9,3.5,3.8,5.5,5.4c3.4,2.7,7.2,2.3,10.2-1.1c2.7-2.9,2.6-7.1-0.2-10c-2.1-2.2-4.4-4.4-6.5-6.6
			c-0.4-0.4-0.7-0.8-1-1.3c-0.3-0.4-0.1-0.9,0.2-1.2c0.3-0.3,0.7-0.4,1.1-0.1c0.4,0.2,0.8,0.5,1.1,0.8c3,3,6.1,6,9,9.1
			c1.6,1.7,3.3,3.5,5.8,3.9c3.1,0.5,6.5-1.5,8.2-4.7c1.3-2.6,0.8-5.6-1.5-7.9c-3.6-3.6-7.2-7.2-10.8-10.9c-0.6-0.6-1.2-1.1-1.5-1.9
			c-0.3-0.6-0.2-1.2,0.3-1.7c0.6-0.5,1.1-0.4,1.6,0.1c0.5,0.4,1,0.9,1.5,1.3c4.7,4.6,9,9.4,14,13.8c1,0.9,2.1,1.4,3.4,1.6
			c2.9,0.4,6.3-1.6,7.8-4.6c1.5-2.9,1.2-5.6-1.2-8c-4.7-4.8-9.3-9.7-14.4-14.1c-0.5-0.4-0.9-0.8-1.3-1.3c-0.4-0.5-0.7-1.1-0.2-1.6
			c0.6-0.6,1.2-0.3,1.8,0.2c0.6,0.5,1.2,1.1,1.7,1.7c3.9,4.4,8.2,8.4,12.4,12.6c2.8,2.7,6.9,2.6,9.7-0.1c3.2-3.1,3.4-6.9,0.6-10
			C352.3,121.2,345.9,114.4,339.4,107.7z"/>
		<path class="st15" d="M287.2,135.5c-1.4-2.4-3.6-4-6.5-3.9c-2.3-0.1-4.1,0.9-5.3,2.7c-3.5,5.1-6.9,10.3-10.4,15.5
			c-2.9,4.3,1.5,9.5,5,10.1c3.7,0.6,5.9-1.1,7.8-4c2.9-4.5,5.9-8.9,8.9-13.3C288.2,140.3,288.6,137.9,287.2,135.5z"/>
		<defs>
			<filter id="Adobe_OpacityMaskFilter_6_" filterUnits="userSpaceOnUse" x="490.5" y="54.8" width="5.4" height="12.3">
				<feColorMatrix  type="matrix" values="1 0 0 0 0  0 1 0 0 0  0 0 1 0 0  0 0 0 1 0"/>
			</filter>
		</defs>
		<mask maskUnits="userSpaceOnUse" x="490.5" y="54.8" width="5.4" height="12.3" id="mask-2_18_">
			<g class="st17">
				<polygon id="path-1_18_" class="st2" points="453.4,145.8 890.1,145.8 890.1,45.4 453.4,45.4 				"/>
			</g>
		</mask>
		<path id="Fill-384_2_" class="st18" d="M495.9,67v-9.4c0-1.5-1.2-2.7-2.7-2.7s-2.7,1.2-2.7,2.7v9.6c1.4-0.2,2.8-0.2,4.2-0.2
			C495.1,66.9,495.5,66.9,495.9,67"/>
		<defs>
			<filter id="Adobe_OpacityMaskFilter_7_" filterUnits="userSpaceOnUse" x="509" y="83.7" width="14.8" height="40.9">
				<feColorMatrix  type="matrix" values="1 0 0 0 0  0 1 0 0 0  0 0 1 0 0  0 0 0 1 0"/>
			</filter>
		</defs>
		<mask maskUnits="userSpaceOnUse" x="509" y="83.7" width="14.8" height="40.9" id="mask-2_17_">
			<g class="st19">
				<polygon id="path-1_17_" class="st2" points="453.4,145.8 890.1,145.8 890.1,45.4 453.4,45.4 				"/>
			</g>
		</mask>
		<path id="Fill-385_2_" class="st20" d="M509,88.9l0.4,0.4c4.1,4,6.4,9.4,6.4,15.2c0,5.5-2.1,10.8-6,14.7l-0.2,0.2l1.7,1.7l4.4,3.5
			c5.2-5.4,8-12.6,8-20.1c0-7.9-3.1-15.3-8.7-20.8l-2.7,2.6L509,88.9z"/>
		<defs>
			<filter id="Adobe_OpacityMaskFilter_8_" filterUnits="userSpaceOnUse" x="511.4" y="121.1" width="4.4" height="3.9">
				<feColorMatrix  type="matrix" values="1 0 0 0 0  0 1 0 0 0  0 0 1 0 0  0 0 0 1 0"/>
			</filter>
		</defs>
		<mask maskUnits="userSpaceOnUse" x="511.4" y="121.1" width="4.4" height="3.9" id="mask-2_16_">
			<g class="st21">
				<polygon id="path-1_16_" class="st2" points="453.4,145.8 890.1,145.8 890.1,45.4 453.4,45.4 				"/>
			</g>
		</mask>
		<path id="Fill-386_2_" class="st22" d="M515.4,125l0.2-0.2c0.1-0.1,0.1-0.1,0.2-0.2l-4.4-3.5L515.4,125z"/>
		<defs>
			<filter id="Adobe_OpacityMaskFilter_9_" filterUnits="userSpaceOnUse" x="499.8" y="77.9" width="21.4" height="19.8">
				<feColorMatrix  type="matrix" values="1 0 0 0 0  0 1 0 0 0  0 0 1 0 0  0 0 0 1 0"/>
			</filter>
		</defs>
		<mask maskUnits="userSpaceOnUse" x="499.8" y="77.9" width="21.4" height="19.8" id="mask-2_15_">
			<g class="st23">
				<polygon id="path-1_15_" class="st2" points="453.4,145.8 890.1,145.8 890.1,45.4 453.4,45.4 				"/>
			</g>
		</mask>
		<line id="Fill-387_2_" class="st24" x1="521.3" y1="77.9" x2="499.8" y2="97.7"/>
		<defs>
			<filter id="Adobe_OpacityMaskFilter_10_" filterUnits="userSpaceOnUse" x="453.4" y="63.2" width="73.1" height="82.5">
				<feColorMatrix  type="matrix" values="1 0 0 0 0  0 1 0 0 0  0 0 1 0 0  0 0 0 1 0"/>
			</filter>
		</defs>
		<mask maskUnits="userSpaceOnUse" x="453.4" y="63.2" width="73.1" height="82.5" id="mask-2_14_">
			<g class="st25">
				<polygon id="path-1_14_" class="st2" points="453.4,145.8 890.1,145.8 890.1,45.4 453.4,45.4 				"/>
			</g>
		</mask>
		<path id="Fill-388_2_" class="st26" d="M518.7,138.4h-24c-18.7,0-33.9-15.2-33.9-33.9c0-18.7,15.2-33.9,33.9-33.9
			c7.8,0,15.1,2.6,21.1,7.4l-16.5,15.3c-1.4-0.6-3-0.9-4.6-0.9c-6.7,0-12.2,5.5-12.2,12.2c0,6.7,5.5,12.2,12.2,12.2
			c1.2,0,2.3-0.2,3.4-0.5l20.6,15.5V138.4z M494.7,109.3c-2.6,0-4.8-2.2-4.8-4.8c0-2.6,2.2-4.8,4.8-4.8c2.6,0,4.8,2.2,4.8,4.8
			C499.5,107.1,497.3,109.3,494.7,109.3L494.7,109.3z M506.9,104.5c0-2.4-0.7-4.6-1.9-6.5l9.8-9.1l0.1,0.1l11.6-11l-2.7-2.7
			c-7.8-7.8-18.2-12.1-29.2-12.1c-22.7,0-41.3,18.5-41.3,41.3c0,22.5,18.1,40.9,40.6,41.2v0h32.1V128l-21.6-16.3
			C506,109.7,506.9,107.2,506.9,104.5L506.9,104.5z"/>
		<defs>
			<filter id="Adobe_OpacityMaskFilter_11_" filterUnits="userSpaceOnUse" x="477.7" y="54.8" width="5.4" height="34.2">
				<feColorMatrix  type="matrix" values="1 0 0 0 0  0 1 0 0 0  0 0 1 0 0  0 0 0 1 0"/>
			</filter>
		</defs>
		<mask maskUnits="userSpaceOnUse" x="477.7" y="54.8" width="5.4" height="34.2" id="mask-2_10_">
			<g class="st27">
				<polygon id="path-1_10_" class="st2" points="453.4,145.8 890.1,145.8 890.1,45.4 453.4,45.4 				"/>
			</g>
		</mask>
		<path id="Fill-392_2_" class="st28" d="M480.4,89c-1.5,0-2.7-1.2-2.7-2.7V57.5c0-1.5,1.2-2.7,2.7-2.7c1.5,0,2.7,1.2,2.7,2.7v28.8
			C483.1,87.8,481.9,89,480.4,89"/>
		<path class="st15" d="M375.6,69.6v67.9c0,1.2,1,2.2,2.3,2.2h47.2c1.3,0,2.3-1,2.3-2.2V69.6c0-1.2-1-2.2-2.3-2.2h-47.2
			C376.6,67.4,375.6,68.4,375.6,69.6z M398.2,129.8c0-2.5,2.2-4.7,4.8-4.7c2.6,0,4.7,2.1,4.7,4.7c0,2.6-2,4.5-4.6,4.6
			C400.5,134.4,398.2,132.3,398.2,129.8z M382.3,129.8c0-2.5,2.2-4.7,4.8-4.7c2.6,0,4.7,2.1,4.7,4.7c0,2.6-2,4.5-4.6,4.6
			C384.5,134.4,382.3,132.3,382.3,129.8z"/>
		<path class="st15" d="M220.2,74.6l-56.5-0.2c-1.2,0,8.7,1.1,8.7,2.3v66.8c0,1.2-13.4,2.2-12.2,2.2h60c1.2,0,2.2-1,2.2-2.2V76.8
			C222.4,75.6,221.4,74.6,220.2,74.6z M195.9,140.5c-2.5,0-4.5-2-4.5-4.5c0-2.6,2-4.6,4.6-4.6c2.5,0,4.6,2.2,4.6,4.6
			C200.6,138.5,198.4,140.6,195.9,140.5z M211.2,140.5c-2.5,0-4.5-2-4.5-4.5c0-2.6,2-4.6,4.6-4.6c2.5,0,4.6,2.2,4.6,4.6
			C216,138.5,213.8,140.6,211.2,140.5z"/>
	</g>
</g>
<g id="n2">
	<g>
		<rect x="78.2" y="315.5" class="st29" width="25.3" height="6.5"/>
		<path class="st16" d="M41.7,274.4v41.2h14.4c11.4,0,20.6-9.2,20.6-20.6s-9.2-20.6-20.6-20.6H41.7z M50.6,283.2v23.5h5.6
			c6.5,0,11.8-5.3,11.8-11.8c0-6.5-5.3-11.8-11.8-11.8H50.6z"/>
		<path class="st16" d="M110,274.4v41.2h14.4c11.4,0,20.6-9.2,20.6-20.6s-9.2-20.6-20.6-20.6H110z M118.8,283.2v23.5h5.6
			c6.5,0,11.8-5.3,11.8-11.8c0-6.5-5.3-11.8-11.8-11.8H118.8z"/>
		<path class="st15" d="M165.5,263.5c-3.4,0-5.5-0.9-7.1-4c-3.9-7.2-9.2-13.4-15.4-18.8c-15.2-13.3-32.9-19.9-57.1-19.9
			c-7.4-0.2-17.9,2.4-28,6.8c-12.7,5.7-23.1,14.1-31.3,25.1c-9.1,12.2-13.8,26-14.7,40.9c-0.5,8.6,0.7,17.2,3.3,25.6
			c4.6,15.5,13.6,28.2,26.4,38.3c11.6,9.2,24.9,14.4,39.6,16.2c14.9,1.8,29.3-0.6,42.8-6.9c14.3-6.6,23.4-13.7,31.6-26.9
			c1.6-2.6,4.3-5.2,7.3-5.2c6.1,0,12.1,0,18.2,0c0.3-1.4,1.9-4.2,2.2-5.6c0-21.7,0-43.9,0-65.8C177.4,263.4,171.4,263.4,165.5,263.5
			z M90.4,356.4c-32.7,0.6-59.2-25.5-60.4-56.7c-1.3-33.9,27.2-60.9,59.7-61.1c32.3-0.2,60.5,24.9,60.8,58.7
			C151,329.5,123.9,356.8,90.4,356.4z"/>
		<path class="st15" d="M562,273.6c-1.7-6.3-3.9-12.2-6.8-17.9c-3.6-7.3-8.8-13.4-14.5-19.2c-4.8-4.8-10.3-8.5-16.1-12
			c-7-4.2-14.7-7-22.5-8.5c-11.8-2.2-23.6-1.9-35.4,1.2c-16.1,4.2-29.2,13-39.9,25.6c-3.1,3.6-5.4,7.8-8,11.7
			c-0.8,1.3-1.8,1.9-3.2,1.9c-2.3,0-4.7,0-7,0.1c-2.3,0.1-4.6,0.1-6.9,0.2c0,23.8,0,47.5,0,71.5c4.5,0,8.9,0,13.4,0
			c1.3,0,2.7,0,3.3,1.3c1.2,2.3,3,4.2,4.3,6.4c6.7,10.7,16.1,18.6,26.8,24.9c10.6,6.2,22.4,8.9,34.5,9.5c8.5,0.4,16.9-1,25.1-3.4
			c9.8-2.9,18.6-7.6,26.4-14.2c9-7.5,16.4-16.3,21.3-27c4.4-9.6,7.2-19.6,7.4-30.3C564.3,288.1,563.9,280.9,562,273.6z M547,297.6
			c-0.4,3.8-0.6,7.7-1.7,11.3c-1.7,5.9-4.2,11.7-7.7,16.9c-3.3,4.9-7,9.4-11.4,13.2c-5.2,4.4-11.1,7.9-17.5,10.3
			c-7.1,2.7-14.4,4.6-21,4.2c-15.3,0.2-28-4.4-39-13.2c-8.5-6.8-14.8-15.4-18.9-25.9c-4.1-10.5-4.9-21.1-3.4-31.9
			c0.9-7,3.5-13.6,7-19.8c4.4-7.8,10.3-14.1,17.3-19.4c4.6-3.5,9.8-6.2,15.4-8.1c6.1-2.1,12.4-3,18.8-3.9c4.9-0.7,9.4,0.8,14.1,1.7
			c10.7,2,20.3,6.7,28.4,14.2c5.4,5,10.1,10.5,13.4,16.9C546,274.5,548.1,285.7,547,297.6z"/>
		<path class="st15" d="M239.1,323.4c-0.2-2.8-2.8-5.7-5.8-6.6c-2.5-0.7-5.2,0.3-6.9,2.9c-2.1,2.9-4.1,5.9-6.1,8.9
			c-0.7,1.1-1.3,2.3-1.2,3.7c-0.2,1.8,0.6,3.3,1.8,4.5c2.4,2.7,7.8,4,10.5-0.1c2.2-3.3,4.5-6.6,6.8-9.9
			C238.8,325.8,239.2,324.7,239.1,323.4z"/>
		<path class="st15" d="M364.2,284c0-7-0.7-14-0.6-21c0-1.3-0.3-2.5-1.7-2.9c-1.6-0.3-3.1-1-4.6-1.7c-11.3-4.6-22.5-9.1-33.8-13.6
			c-3.1-1.2-6.1-2.9-9.7-2.9c-14.8,0.1-29.5,0.1-44.3,0c-1.7,0-3.2,0.5-4.4,1.6c-2.8,2.5-5.6,5-8.4,7.5c-4.1,3.7-8.2,7.5-12.4,11.2
			c-4.2,3.7-8.4,7.3-12.5,11c-2,1.7-1.9,3.1,0.1,4.8c4.8,4,10.1,4.7,15.6,2c8.6-4.2,17.1-8.7,25.6-13.1c1.8-0.9,3.5-1.1,5.4-0.8
			c7.3,1.5,14.5,3.2,21.7,4.8c4,0.9,7.9,1.9,11.9,2.7c3.2,0.6,5.2,2.6,7.3,4.8c3.7,4,7.4,8,11.3,11.7c5,4.7,9.8,9.6,14.5,14.5
			c2.9,3,5.7,6.2,8.7,9.1c1.2,1.2,2.2,2.5,2.7,4.1c0.7,2.2,2.2,2.8,5.1,2.4c1.7-0.2,2.4-1.1,2.5-3.4c0.1-2.1,0.1-4.2,0.1-6.4
			C364.2,301.8,364.2,292.9,364.2,284z"/>
		<path class="st15" d="M295.9,337.8c-0.3-3.1-2.6-5.6-6.1-6.6c-2.3-0.7-4.9,0.3-6.7,2.8c-2.1,3-4,6.2-6.1,9.2
			c-3.4,4.9,1.5,10.8,6.1,10.4c2.4,0,3.5-0.6,5.1-2.5c2.4-3.1,4.5-6.4,6.6-9.6C295.6,340.4,296,339.2,295.9,337.8z"/>
		<path class="st15" d="M266.5,315.4c0-5-4.2-8.2-8.7-6.8c-2.2,0.7-3.6,2.4-4.7,4.3c-2,3.4-4.4,6.4-6.5,9.7
			c-2.4,3.9-5.1,7.6-7.6,11.4c-1.2,1.9-1.7,4-0.7,6.1c2.4,4.6,9,5.8,12,1.6c5.2-7.3,10.1-14.8,15.2-22.2
			C266.3,318.3,266.5,316.9,266.5,315.4z"/>
		<path class="st15" d="M332.1,296.6c-5.6-5.7-11.3-11.2-17-16.7c-1.2-1.2-2.5-2-4.2-2.4c-10.4-2.4-20.8-4.9-31.2-7.3
			c-1.8-0.4-3.5-0.5-5.2,0.4c-6.9,3.5-13.8,7.1-20.7,10.6c-3.6,1.9-7.2,3.7-11.4,4.1c-6.9,0.5-12.1-2.5-16.3-7.8
			c-1.7-2.2-1.6-3,0.6-4.8c1.7-1.5,3.4-3,5-4.7c0.5-0.6,1.1-1.2,0.7-2c-0.5-0.9-1.4-0.8-2.2-0.7c-2.1,0.4-4.3,0.7-6.4,1.2
			c-3.4,0.7-4,1.4-4,4.9c0,11.6-0.1,23.3-0.4,34.9c0,3.5,0,7,0,10.5c0,1.2-0.1,2.5,1.4,2.9c1.3,0.4,2-0.7,2.7-1.6
			c0.8-1.1,1.6-2.2,2.7-3.1c3.6-3.2,10.8-1.4,13.4,1.8c0.6,0.7,1.1,1.4,1.7,2.1c1.4,1.6,2.5,1.6,3.9-0.1c0.6-0.8,1.1-1.7,1.7-2.5
			c2.1-2.8,3.6-6,6-8.6c2.4-2.7,6.9-4.6,11.3-2.3c3.6,1.9,5.6,4.6,6.4,8.5c0.5,2.4,1.1,2.9,3.5,3.2c1.6,0.1,3.1,0.4,4.5,1.3
			c2.4,1.5,4.3,3.3,5.2,6.1c0.7,2.3,2.1,3.5,4.7,3.3c2.7-0.2,5.2,0.9,7.2,2.8c3.5,3.2,5.5,8.3,1.8,13c-1.1,1.4-2.1,3-3.1,4.5
			c-1.3,2-1.3,3.5,0.3,5.2c1.7,1.9,3.5,3.8,5.5,5.4c3.4,2.7,7.2,2.3,10.2-1.1c2.7-2.9,2.6-7.1-0.2-10c-2.1-2.2-4.4-4.4-6.5-6.6
			c-0.4-0.4-0.7-0.8-1-1.3c-0.3-0.4-0.1-0.9,0.2-1.2c0.3-0.3,0.7-0.4,1.1-0.1c0.4,0.2,0.8,0.5,1.1,0.8c3,3,6.1,6,9,9.1
			c1.6,1.7,3.3,3.5,5.8,3.9c3.1,0.5,6.5-1.5,8.2-4.7c1.3-2.6,0.8-5.6-1.5-7.9c-3.6-3.6-7.2-7.2-10.8-10.9c-0.6-0.6-1.2-1.1-1.5-1.9
			c-0.3-0.6-0.2-1.2,0.3-1.7c0.6-0.5,1.1-0.4,1.6,0.1c0.5,0.4,1,0.9,1.5,1.3c4.7,4.6,9,9.4,14,13.8c1,0.9,2.1,1.4,3.4,1.6
			c2.9,0.4,6.3-1.6,7.8-4.6c1.5-2.9,1.2-5.6-1.2-8c-4.7-4.8-9.3-9.7-14.4-14.1c-0.5-0.4-0.9-0.8-1.3-1.3c-0.4-0.5-0.7-1.1-0.2-1.6
			c0.6-0.6,1.2-0.3,1.8,0.2c0.6,0.5,1.2,1.1,1.7,1.7c3.9,4.4,8.2,8.4,12.4,12.6c2.8,2.7,6.9,2.6,9.7-0.1c3.2-3.1,3.4-6.9,0.6-10
			C345.1,310.1,338.7,303.2,332.1,296.6z"/>
		<path class="st15" d="M279.9,324.4c-1.4-2.4-3.6-4-6.5-3.9c-2.3-0.1-4.1,0.9-5.3,2.7c-3.5,5.1-6.9,10.3-10.4,15.5
			c-2.9,4.3,1.5,9.5,5,10.1c3.7,0.6,5.9-1.1,7.8-4c2.9-4.5,5.9-8.9,8.9-13.3C280.9,329.2,281.3,326.8,279.9,324.4z"/>
		<defs>
			<filter id="Adobe_OpacityMaskFilter_12_" filterUnits="userSpaceOnUse" x="483.3" y="243.7" width="5.4" height="12.3">
				<feColorMatrix  type="matrix" values="1 0 0 0 0  0 1 0 0 0  0 0 1 0 0  0 0 0 1 0"/>
			</filter>
		</defs>
		<mask maskUnits="userSpaceOnUse" x="483.3" y="243.7" width="5.4" height="12.3" id="mask-2_21_">
			<g class="st30">
				<polygon id="path-1_21_" class="st2" points="446.2,334.6 882.9,334.6 882.9,234.3 446.2,234.3 				"/>
			</g>
		</mask>
		<path id="Fill-384_3_" class="st31" d="M488.7,255.8v-9.4c0-1.5-1.2-2.7-2.7-2.7s-2.7,1.2-2.7,2.7v9.6c1.4-0.2,2.8-0.2,4.2-0.2
			C487.9,255.8,488.3,255.8,488.7,255.8"/>
		<defs>
			<filter id="Adobe_OpacityMaskFilter_13_" filterUnits="userSpaceOnUse" x="501.8" y="272.6" width="14.8" height="40.9">
				<feColorMatrix  type="matrix" values="1 0 0 0 0  0 1 0 0 0  0 0 1 0 0  0 0 0 1 0"/>
			</filter>
		</defs>
		<mask maskUnits="userSpaceOnUse" x="501.8" y="272.6" width="14.8" height="40.9" id="mask-2_20_">
			<g class="st32">
				<polygon id="path-1_20_" class="st2" points="446.2,334.6 882.9,334.6 882.9,234.3 446.2,234.3 				"/>
			</g>
		</mask>
		<path id="Fill-385_3_" class="st33" d="M501.8,277.8l0.4,0.4c4.1,4,6.4,9.4,6.4,15.2c0,5.5-2.1,10.8-6,14.7l-0.2,0.2l1.7,1.7
			l4.4,3.5c5.2-5.4,8-12.6,8-20.1c0-7.9-3.1-15.3-8.7-20.8l-2.7,2.6L501.8,277.8z"/>
		<defs>
			<filter id="Adobe_OpacityMaskFilter_14_" filterUnits="userSpaceOnUse" x="504.2" y="310" width="4.4" height="3.9">
				<feColorMatrix  type="matrix" values="1 0 0 0 0  0 1 0 0 0  0 0 1 0 0  0 0 0 1 0"/>
			</filter>
		</defs>
		<mask maskUnits="userSpaceOnUse" x="504.2" y="310" width="4.4" height="3.9" id="mask-2_19_">
			<g class="st34">
				<polygon id="path-1_19_" class="st2" points="446.2,334.6 882.9,334.6 882.9,234.3 446.2,234.3 				"/>
			</g>
		</mask>
		<path id="Fill-386_3_" class="st35" d="M508.2,313.9l0.2-0.2c0.1-0.1,0.1-0.1,0.2-0.2l-4.4-3.5L508.2,313.9z"/>
		<defs>
			<filter id="Adobe_OpacityMaskFilter_15_" filterUnits="userSpaceOnUse" x="492.6" y="266.8" width="21.4" height="19.8">
				<feColorMatrix  type="matrix" values="1 0 0 0 0  0 1 0 0 0  0 0 1 0 0  0 0 0 1 0"/>
			</filter>
		</defs>
		<mask maskUnits="userSpaceOnUse" x="492.6" y="266.8" width="21.4" height="19.8" id="mask-2_13_">
			<g class="st36">
				<polygon id="path-1_13_" class="st2" points="446.2,334.6 882.9,334.6 882.9,234.3 446.2,234.3 				"/>
			</g>
		</mask>
		<line id="Fill-387_3_" class="st37" x1="514" y1="266.8" x2="492.6" y2="286.6"/>
		<defs>
			<filter id="Adobe_OpacityMaskFilter_16_" filterUnits="userSpaceOnUse" x="446.2" y="252.1" width="73.1" height="82.5">
				<feColorMatrix  type="matrix" values="1 0 0 0 0  0 1 0 0 0  0 0 1 0 0  0 0 0 1 0"/>
			</filter>
		</defs>
		<mask maskUnits="userSpaceOnUse" x="446.2" y="252.1" width="73.1" height="82.5" id="mask-2_12_">
			<g class="st38">
				<polygon id="path-1_12_" class="st2" points="446.2,334.6 882.9,334.6 882.9,234.3 446.2,234.3 				"/>
			</g>
		</mask>
		<path id="Fill-388_3_" class="st39" d="M511.5,327.3h-24c-18.7,0-33.9-15.2-33.9-33.9c0-18.7,15.2-33.9,33.9-33.9
			c7.8,0,15.1,2.6,21.1,7.4l-16.5,15.3c-1.4-0.6-3-0.9-4.6-0.9c-6.7,0-12.2,5.5-12.2,12.2c0,6.7,5.5,12.2,12.2,12.2
			c1.2,0,2.3-0.2,3.4-0.5l20.6,15.5V327.3z M487.5,298.2c-2.6,0-4.8-2.2-4.8-4.8c0-2.6,2.2-4.8,4.8-4.8c2.6,0,4.8,2.2,4.8,4.8
			C492.3,296,490.1,298.2,487.5,298.2L487.5,298.2z M499.6,293.4c0-2.4-0.7-4.6-1.9-6.5l9.8-9.1l0.1,0.1l11.6-11l-2.7-2.7
			c-7.8-7.8-18.2-12.1-29.2-12.1c-22.7,0-41.3,18.5-41.3,41.3c0,22.5,18.1,40.9,40.6,41.2v0h32.1v-17.8l-21.6-16.3
			C498.8,298.6,499.6,296.1,499.6,293.4L499.6,293.4z"/>
		<defs>
			<filter id="Adobe_OpacityMaskFilter_17_" filterUnits="userSpaceOnUse" x="470.5" y="243.7" width="5.4" height="34.2">
				<feColorMatrix  type="matrix" values="1 0 0 0 0  0 1 0 0 0  0 0 1 0 0  0 0 0 1 0"/>
			</filter>
		</defs>
		<mask maskUnits="userSpaceOnUse" x="470.5" y="243.7" width="5.4" height="34.2" id="mask-2_11_">
			<g class="st40">
				<polygon id="path-1_11_" class="st2" points="446.2,334.6 882.9,334.6 882.9,234.3 446.2,234.3 				"/>
			</g>
		</mask>
		<path id="Fill-392_3_" class="st41" d="M473.2,277.9c-1.5,0-2.7-1.2-2.7-2.7v-28.8c0-1.5,1.2-2.7,2.7-2.7c1.5,0,2.7,1.2,2.7,2.7
			v28.8C475.9,276.7,474.7,277.9,473.2,277.9"/>
		<path class="st15" d="M368.4,258.5v67.9c0,1.2,1,2.2,2.3,2.2h47.2c1.3,0,2.3-1,2.3-2.2v-67.9c0-1.2-1-2.2-2.3-2.2h-47.2
			C369.4,256.3,368.4,257.3,368.4,258.5z M391,318.7c0-2.5,2.2-4.7,4.8-4.7c2.6,0,4.7,2.1,4.7,4.7c0,2.6-2,4.5-4.6,4.6
			C393.3,323.3,391,321.2,391,318.7z M375.1,318.7c0-2.5,2.2-4.7,4.8-4.7c2.6,0,4.7,2.1,4.7,4.7c0,2.6-2,4.5-4.6,4.6
			C377.3,323.3,375.1,321.2,375.1,318.7z"/>
		<path class="st15" d="M213,263.5l-56.5-0.2c-1.2,0,8.7,1.1,8.7,2.3v66.8c0,1.2-13.4,2.2-12.2,2.2h60c1.2,0,2.2-1,2.2-2.2v-66.8
			C215.2,264.5,214.2,263.5,213,263.5z M188.6,329.4c-2.5,0-4.5-2-4.5-4.5c0-2.6,2-4.6,4.6-4.6c2.5,0,4.6,2.2,4.6,4.6
			C193.4,327.4,191.2,329.4,188.6,329.4z M204,329.4c-2.5,0-4.5-2-4.5-4.5c0-2.6,2-4.6,4.6-4.6c2.5,0,4.6,2.2,4.6,4.6
			C208.7,327.4,206.6,329.4,204,329.4z"/>
	</g>
</g>
<g id="s1">
	<g>
		<g>
			<path class="st15" d="M888.9,183.4c17.4,0,34.8,0.2,52.2-0.1c9.3-0.2,17.5-6.4,20-15.4c0.8-2.8,1.1-5.6,1.1-8.5
				c0.1-18.8-0.2-37.5,0-56.3c0.1-16.2,0-32.4-0.1-48.7c0-3-0.3-3.2-3.3-3.3c-7.5,0-14.9,0-22.4,0c-5.1,0-10.1-0.1-15.2-0.2
				c-6.2-0.1-9.1-4.1-7.1-9.9c1.1-3.3,2.7-6.5,4.1-9.7c1-2.4,2-4.8,1.9-7.4c-0.1-4.4-2.3-7.6-6.3-9.5c-6.2-2.9-12.7-3.8-19.4-3.2
				c-2.4,0.2-4.8,0.7-7.2,1.4c-7.7,2.2-11.4,8.8-9.3,16.6c1,3.8,3.2,7,5.5,10.2c1.4,1.9,2.4,3.8,2.2,6.3c-0.2,2.7-2.1,4.9-4.8,5.2
				c-4.5,0.6-8.9,0.4-13.4,0.2c-6.7-0.2-13.4-0.3-20.1,0c-3.3,0.1-6.7,0.1-10,0.1c-3.4,0-3.6,0.2-3.6,3.7c0,7.3,0,14.7,0,22
				c0,6.3,0,12.7,0,19c0,7.9,4.3,10.9,11.7,7.8c3.1-1.3,6.1-2.8,9.1-4.1c2.1-0.9,4.2-1.7,6.6-1.4c4.4,0.5,7.2,3.2,8.7,7.1
				c3.5,8.9,3.8,17.9,1.1,27c-2.4,8.1-10.8,10.7-17.9,7.4c-2.8-1.3-5.2-3.3-7.8-5.1c-0.7-0.5-1.5-0.9-2.3-1.3
				c-4.2-2.3-9.4,1.1-9.3,6.3c0.1,6.9,0,13.9,0,20.8c0,6.9,0.1,13.7,0,20.6c0,1.8,0.5,2.4,2.3,2.3
				C853.5,183.4,871.2,183.4,888.9,183.4z"/>
			<path class="st15" d="M739.4,183.4c17.4,0,34.9,0,52.3,0c2.6,0,2.6,0,2.6-2.6c0-13.6,0-27.1,0-40.7c0-2.2,0.4-4.2,2.3-5.7
				c1.9-1.5,4.8-1.7,7-0.4c2.8,1.7,5.2,3.8,8,5.4c5.8,3.3,13.3,2.8,17.4-2c1.3-1.6,2.2-3.3,2.7-5.3c2.5-8.8,2.1-17.5-0.9-26
				c-1.5-4.1-4.2-7.2-8.9-8c-2.5-0.4-4.7,0.4-6.9,1.3c-2.5,1.1-5,2.3-7.5,3.5c-1.3,0.6-2.6,1.1-4,1.5c-5.4,1.4-9-1.3-9.2-6.8
				c-0.1-2.4,0-4.8,0-7.2c0-11.9,0-23.8,0-35.7c0-3-0.5-3.5-3.4-3.5c-15.4,0-30.8,0-46.3,0c-0.5,0-1.1,0-1.6,0.1
				c-3.2,0.5-4.4,2.6-3,5.5c0.9,2,2.4,3.6,3.7,5.3c1.8,2.5,3.7,4.9,5,7.6c1.5,3,2,6.1,1.6,9.4c-0.5,4.2-3,7.1-6.7,8.9
				c-6.2,3-12.9,3.8-19.7,3.2c-5.1-0.4-9.7-2-13.3-5.8c-3.6-3.8-4.7-8.1-2.9-13c1.1-3,2.8-5.5,5-7.8c2-2,3.5-4.4,4.3-7.1
				c1.1-3.7-0.7-6.2-4.5-6.2c-14.6,0-29.3,0-43.9,0c-1.9,0-2.4,0.6-2.4,2.9c0,12.8,0,25.7,0,38.5c0,22.7,0,45.5,0,68.2
				c0,10.5,6.2,18.6,16.3,21.5c2.3,0.7,4.5,1,6.9,1C705.9,183.4,722.7,183.4,739.4,183.4z"/>
		</g>
		<defs>
			<filter id="Adobe_OpacityMaskFilter_18_" filterUnits="userSpaceOnUse" x="926.2" y="94.6" width="17.8" height="16.5">
				<feColorMatrix  type="matrix" values="1 0 0 0 0  0 1 0 0 0  0 0 1 0 0  0 0 0 1 0"/>
			</filter>
		</defs>
		<mask maskUnits="userSpaceOnUse" x="926.2" y="94.6" width="17.8" height="16.5" id="mask-2_4_">
			<g class="st42">
				<polygon id="path-1_4_" class="st2" points="887.6,151.1 1251.1,151.1 1251.1,67.5 887.6,67.5 				"/>
			</g>
		</mask>
		<line id="Fill-387_4_" class="st43" x1="944.1" y1="94.6" x2="926.2" y2="111.1"/>
		<g>
			<defs>
				<filter id="Adobe_OpacityMaskFilter_19_" filterUnits="userSpaceOnUse" x="922.8" y="106.5" width="3.3" height="7.4">
					<feColorMatrix  type="matrix" values="1 0 0 0 0  0 1 0 0 0  0 0 1 0 0  0 0 0 1 0"/>
				</filter>
			</defs>
			<mask maskUnits="userSpaceOnUse" x="922.8" y="106.5" width="3.3" height="7.4" id="mask-2_24_">
				<g class="st44">
					<polygon id="path-1_24_" class="st2" points="900.5,161.2 1163.2,161.2 1163.2,100.8 900.5,100.8 					"/>
				</g>
			</mask>
			<path id="Fill-384_4_" class="st45" d="M926.1,113.8v-5.7c0-0.9-0.7-1.6-1.6-1.6s-1.6,0.7-1.6,1.6v5.8c0.8-0.1,1.7-0.1,2.5-0.1
				C925.6,113.8,925.8,113.8,926.1,113.8"/>
			<defs>
				<filter id="Adobe_OpacityMaskFilter_20_" filterUnits="userSpaceOnUse" x="933.9" y="123.9" width="8.9" height="24.6">
					<feColorMatrix  type="matrix" values="1 0 0 0 0  0 1 0 0 0  0 0 1 0 0  0 0 0 1 0"/>
				</filter>
			</defs>
			<mask maskUnits="userSpaceOnUse" x="933.9" y="123.9" width="8.9" height="24.6" id="mask-2_23_">
				<g class="st46">
					<polygon id="path-1_23_" class="st2" points="900.5,161.2 1163.2,161.2 1163.2,100.8 900.5,100.8 					"/>
				</g>
			</mask>
			<path id="Fill-385_4_" class="st47" d="M933.9,127l0.3,0.3c2.5,2.4,3.9,5.7,3.9,9.1c0,3.3-1.3,6.5-3.6,8.9l-0.1,0.1l1.1,1
				l2.6,2.1c3.1-3.3,4.8-7.6,4.8-12.1c0-4.7-1.9-9.2-5.2-12.5l-1.6,1.6L933.9,127z"/>
			<defs>
				<filter id="Adobe_OpacityMaskFilter_21_" filterUnits="userSpaceOnUse" x="900.5" y="111.6" width="44" height="49.6">
					<feColorMatrix  type="matrix" values="1 0 0 0 0  0 1 0 0 0  0 0 1 0 0  0 0 0 1 0"/>
				</filter>
			</defs>
			<mask maskUnits="userSpaceOnUse" x="900.5" y="111.6" width="44" height="49.6" id="mask-2_3_">
				<g class="st48">
					<polygon id="path-1_3_" class="st2" points="900.5,161.2 1163.2,161.2 1163.2,100.8 900.5,100.8 					"/>
				</g>
			</mask>
			<path id="Fill-388_4_" class="st49" d="M939.8,156.8h-14.5c-11.2,0-20.4-9.1-20.4-20.4c0-11.2,9.1-20.4,20.4-20.4
				c4.7,0,9.1,1.6,12.7,4.4l-9.9,9.2c-0.9-0.3-1.8-0.5-2.8-0.5c-4,0-7.3,3.3-7.3,7.3s3.3,7.3,7.3,7.3c0.7,0,1.4-0.1,2.1-0.3
				l12.4,9.3V156.8z M925.3,139.3c-1.6,0-2.9-1.3-2.9-2.9s1.3-2.9,2.9-2.9c1.6,0,2.9,1.3,2.9,2.9S926.9,139.3,925.3,139.3
				L925.3,139.3z M932.7,136.4c0-1.4-0.4-2.8-1.1-3.9l5.9-5.5l0.1,0.1l7-6.6l-1.6-1.6c-4.7-4.7-10.9-7.3-17.5-7.3
				c-13.7,0-24.8,11.1-24.8,24.8c0,13.5,10.9,24.6,24.4,24.8v0h19.3v-10.7l-13-9.8C932.1,139.5,932.7,138,932.7,136.4L932.7,136.4z"
				/>
			<defs>
				<filter id="Adobe_OpacityMaskFilter_22_" filterUnits="userSpaceOnUse" x="915.1" y="106.5" width="3.3" height="20.5">
					<feColorMatrix  type="matrix" values="1 0 0 0 0  0 1 0 0 0  0 0 1 0 0  0 0 0 1 0"/>
				</filter>
			</defs>
			<mask maskUnits="userSpaceOnUse" x="915.1" y="106.5" width="3.3" height="20.5" id="mask-2_2_">
				<g class="st50">
					<polygon id="path-1_2_" class="st2" points="900.5,161.2 1163.2,161.2 1163.2,100.8 900.5,100.8 					"/>
				</g>
			</mask>
			<path id="Fill-392_4_" class="st51" d="M916.8,127.1c-0.9,0-1.6-0.7-1.6-1.6v-17.3c0-0.9,0.7-1.6,1.6-1.6c0.9,0,1.6,0.7,1.6,1.6
				v17.3C918.4,126.3,917.7,127.1,916.8,127.1"/>
		</g>
		<rect x="719.9" y="155.3" class="st52" width="23" height="5.9"/>
		<path class="st2" d="M686.7,117.9v37.4h13.1c10.3,0,18.7-8.4,18.7-18.7c0-10.3-8.4-18.7-18.7-18.7H686.7z M694.7,125.9v21.4h5.1
			c5.9,0,10.7-4.8,10.7-10.7c0-5.9-4.8-10.7-10.7-10.7H694.7z"/>
		<path class="st2" d="M748.7,117.9v37.4h13.1c10.3,0,18.7-8.4,18.7-18.7c0-10.3-8.4-18.7-18.7-18.7H748.7z M756.7,125.9v21.4h5.1
			c5.9,0,10.7-4.8,10.7-10.7c0-5.9-4.8-10.7-10.7-10.7H756.7z"/>
	</g>
</g>
<g id="s2">
	<g>
		<g>
			<path class="st29" d="M885.8,378.3c17.1,0,34.3,0.2,51.4-0.1c9.2-0.2,17.2-6.3,19.7-15.2c0.8-2.7,1-5.5,1.1-8.4
				c0.1-18.5-0.2-37,0-55.5c0.1-16,0-32-0.1-48c0-3-0.3-3.2-3.2-3.2c-7.4,0-14.7,0-22.1,0c-5,0-10-0.1-15-0.2c-6.1-0.1-9-4-7-9.8
				c1.1-3.3,2.7-6.4,4.1-9.6c1-2.3,1.9-4.7,1.9-7.3c-0.1-4.4-2.3-7.5-6.2-9.3c-6.1-2.8-12.5-3.7-19.1-3.1c-2.4,0.2-4.8,0.7-7.1,1.4
				c-7.6,2.2-11.2,8.7-9.2,16.3c1,3.8,3.2,6.9,5.4,10c1.4,1.8,2.4,3.8,2.1,6.2c-0.2,2.7-2.1,4.8-4.8,5.1c-4.4,0.5-8.8,0.4-13.2,0.2
				c-6.6-0.2-13.2-0.3-19.8,0c-3.3,0.1-6.6,0.1-9.9,0.1c-3.3,0-3.6,0.2-3.6,3.6c0,7.2,0,14.5,0,21.7c0,6.2,0,12.5,0,18.7
				c0,7.8,4.3,10.7,11.5,7.7c3-1.3,6-2.8,9-4.1c2.1-0.9,4.2-1.7,6.5-1.4c4.3,0.5,7.1,3.1,8.6,7c3.4,8.7,3.8,17.7,1.1,26.7
				c-2.4,8-10.7,10.6-17.7,7.3c-2.8-1.3-5.2-3.3-7.7-5c-0.7-0.5-1.5-0.9-2.3-1.3c-4.1-2.3-9.3,1.1-9.2,6.2c0.1,6.8,0,13.7,0,20.5
				c0,6.8,0.1,13.6,0,20.3c0,1.8,0.5,2.3,2.3,2.3C850.9,378.3,868.4,378.3,885.8,378.3z"/>
			<path class="st15" d="M738.4,378.3c17.2,0,34.4,0,51.6,0c2.5,0,2.5,0,2.5-2.5c0-13.4,0-26.8,0-40.1c0-2.2,0.4-4.2,2.3-5.7
				c1.9-1.5,4.7-1.7,6.9-0.4c2.7,1.6,5.1,3.7,7.9,5.3c5.7,3.2,13.1,2.8,17.2-1.9c1.3-1.5,2.2-3.3,2.7-5.2c2.4-8.7,2.1-17.3-0.9-25.7
				c-1.5-4.1-4.1-7.1-8.7-7.9c-2.5-0.4-4.7,0.4-6.8,1.3c-2.5,1.1-4.9,2.3-7.4,3.5c-1.3,0.6-2.6,1.1-4,1.5c-5.3,1.4-8.9-1.3-9.1-6.8
				c-0.1-2.4,0-4.7,0-7.1c0-11.7,0-23.5,0-35.2c0-2.9-0.5-3.4-3.4-3.4c-15.2,0-30.4,0-45.6,0c-0.5,0-1.1,0-1.6,0.1
				c-3.2,0.5-4.3,2.5-3,5.4c0.9,1.9,2.4,3.5,3.6,5.2c1.8,2.4,3.6,4.8,5,7.5c1.5,2.9,2,6,1.6,9.3c-0.5,4.2-3,7-6.6,8.8
				c-6.2,2.9-12.7,3.7-19.5,3.2c-5-0.4-9.5-2-13.1-5.7c-3.5-3.7-4.7-7.9-2.9-12.8c1.1-2.9,2.7-5.5,4.9-7.7c2-2,3.4-4.3,4.2-7
				c1.1-3.7-0.7-6.2-4.5-6.2c-14.4,0-28.9,0-43.3,0c-1.9,0-2.3,0.6-2.4,2.9c0,12.7,0,25.3,0,38c0,22.4,0,44.9,0,67.3
				c0,10.3,6.1,18.3,16.1,21.2c2.2,0.7,4.4,0.9,6.8,0.9C705.4,378.3,721.9,378.3,738.4,378.3z"/>
		</g>
		<defs>
			<filter id="Adobe_OpacityMaskFilter_23_" filterUnits="userSpaceOnUse" x="922.6" y="290.7" width="17.6" height="16.3">
				<feColorMatrix  type="matrix" values="1 0 0 0 0  0 1 0 0 0  0 0 1 0 0  0 0 0 1 0"/>
			</filter>
		</defs>
		<mask maskUnits="userSpaceOnUse" x="922.6" y="290.7" width="17.6" height="16.3" id="mask-2_28_">
			<g class="st53">
				<polygon id="path-1_28_" class="st2" points="884.6,346.4 1243,346.4 1243,264 884.6,264 				"/>
			</g>
		</mask>
		<line id="Fill-387_5_" class="st54" x1="940.2" y1="290.7" x2="922.6" y2="307"/>
		<g>
			<defs>
				<filter id="Adobe_OpacityMaskFilter_24_" filterUnits="userSpaceOnUse" x="918.2" y="294.7" width="3.7" height="8.4">
					<feColorMatrix  type="matrix" values="1 0 0 0 0  0 1 0 0 0  0 0 1 0 0  0 0 0 1 0"/>
				</filter>
			</defs>
			<mask maskUnits="userSpaceOnUse" x="918.2" y="294.7" width="3.7" height="8.4" id="mask-2_27_">
				<g class="st55">
					<polygon id="path-1_27_" class="st2" points="893,356.5 1189.7,356.5 1189.7,288.3 893,288.3 					"/>
				</g>
			</mask>
			<path id="Fill-384_5_" class="st56" d="M921.8,303v-6.4c0-1-0.8-1.8-1.8-1.8s-1.8,0.8-1.8,1.8v6.5c0.9-0.1,1.9-0.2,2.8-0.2
				C921.3,302.9,921.6,303,921.8,303"/>
			<defs>
				<filter id="Adobe_OpacityMaskFilter_25_" filterUnits="userSpaceOnUse" x="930.7" y="314.4" width="10.1" height="27.8">
					<feColorMatrix  type="matrix" values="1 0 0 0 0  0 1 0 0 0  0 0 1 0 0  0 0 0 1 0"/>
				</filter>
			</defs>
			<mask maskUnits="userSpaceOnUse" x="930.7" y="314.4" width="10.1" height="27.8" id="mask-2_26_">
				<g class="st57">
					<polygon id="path-1_26_" class="st2" points="893,356.5 1189.7,356.5 1189.7,288.3 893,288.3 					"/>
				</g>
			</mask>
			<path id="Fill-385_5_" class="st58" d="M930.7,317.9l0.3,0.3c2.8,2.7,4.4,6.4,4.4,10.3c0,3.8-1.4,7.3-4,10l-0.1,0.1l1.2,1.2
				l3,2.3c3.5-3.7,5.5-8.5,5.5-13.6c0-5.4-2.1-10.4-5.9-14.1l-1.9,1.8L930.7,317.9z"/>
			<defs>
				<filter id="Adobe_OpacityMaskFilter_26_" filterUnits="userSpaceOnUse" x="893" y="300.4" width="49.7" height="56.1">
					<feColorMatrix  type="matrix" values="1 0 0 0 0  0 1 0 0 0  0 0 1 0 0  0 0 0 1 0"/>
				</filter>
			</defs>
			<mask maskUnits="userSpaceOnUse" x="893" y="300.4" width="49.7" height="56.1" id="mask-2_25_">
				<g class="st59">
					<polygon id="path-1_25_" class="st2" points="893,356.5 1189.7,356.5 1189.7,288.3 893,288.3 					"/>
				</g>
			</mask>
			<path id="Fill-388_5_" class="st60" d="M937.4,351.5H921c-12.7,0-23-10.3-23-23c0-12.7,10.3-23,23-23c5.3,0,10.3,1.8,14.3,5
				l-11.2,10.4c-1-0.4-2-0.6-3.1-0.6c-4.6,0-8.3,3.7-8.3,8.3s3.7,8.3,8.3,8.3c0.8,0,1.6-0.1,2.3-0.3l14,10.5V351.5z M921,331.7
				c-1.8,0-3.3-1.5-3.3-3.3c0-1.8,1.5-3.3,3.3-3.3c1.8,0,3.3,1.5,3.3,3.3C924.3,330.3,922.8,331.7,921,331.7L921,331.7z
				 M929.3,328.5c0-1.6-0.5-3.1-1.3-4.4l6.7-6.2l0.1,0.1l7.9-7.5l-1.8-1.8c-5.3-5.3-12.3-8.2-19.8-8.2c-15.5,0-28,12.6-28,28
				c0,15.3,12.3,27.8,27.6,28v0h21.8v-12.1l-14.7-11.1C928.7,332,929.3,330.3,929.3,328.5L929.3,328.5z"/>
			<defs>
				<filter id="Adobe_OpacityMaskFilter_27_" filterUnits="userSpaceOnUse" x="909.5" y="294.7" width="3.7" height="23.2">
					<feColorMatrix  type="matrix" values="1 0 0 0 0  0 1 0 0 0  0 0 1 0 0  0 0 0 1 0"/>
				</filter>
			</defs>
			<mask maskUnits="userSpaceOnUse" x="909.5" y="294.7" width="3.7" height="23.2" id="mask-2_22_">
				<g class="st61">
					<polygon id="path-1_22_" class="st2" points="893,356.5 1189.7,356.5 1189.7,288.3 893,288.3 					"/>
				</g>
			</mask>
			<path id="Fill-392_5_" class="st62" d="M911.3,317.9c-1,0-1.8-0.8-1.8-1.8v-19.5c0-1,0.8-1.8,1.8-1.8s1.8,0.8,1.8,1.8v19.5
				C913.1,317.1,912.3,317.9,911.3,317.9"/>
		</g>
		<rect x="719.1" y="350.6" class="st52" width="22.7" height="5.8"/>
		<path class="st2" d="M686.5,313.7v36.9h12.9c10.2,0,18.4-8.3,18.4-18.4s-8.3-18.4-18.4-18.4H686.5z M694.4,321.6v21.1h5
			c5.8,0,10.5-4.7,10.5-10.5s-4.7-10.5-10.5-10.5H694.4z"/>
		<path class="st2" d="M747.6,313.7v36.9h12.9c10.2,0,18.4-8.3,18.4-18.4s-8.3-18.4-18.4-18.4H747.6z M755.5,321.6v21.1h5
			c5.8,0,10.5-4.7,10.5-10.5s-4.7-10.5-10.5-10.5H755.5z"/>
	</g>
</g>
</svg>
